<svg width="25" height="25" viewBox="0 0 25 25" fill="none" xmlns="http://www.w3.org/2000/svg">
<path d="M7.10156 10.5C6.00156 10.5 5.10156 11.4 5.10156 12.5C5.10156 13.6 6.00156 14.5 7.10156 14.5C8.20156 14.5 9.10156 13.6 9.10156 12.5C9.10156 11.4 8.20156 10.5 7.10156 10.5ZM19.1016 10.5C18.0016 10.5 17.1016 11.4 17.1016 12.5C17.1016 13.6 18.0016 14.5 19.1016 14.5C20.2016 14.5 21.1016 13.6 21.1016 12.5C21.1016 11.4 20.2016 10.5 19.1016 10.5ZM13.1016 10.5C12.0016 10.5 11.1016 11.4 11.1016 12.5C11.1016 13.6 12.0016 14.5 13.1016 14.5C14.2016 14.5 15.1016 13.6 15.1016 12.5C15.1016 11.4 14.2016 10.5 13.1016 10.5Z" fill="#C1C2C6"/>
</svg>
