<svg width="44" height="44" viewBox="0 0 44 44" fill="none" xmlns="http://www.w3.org/2000/svg">
<rect width="44" height="44" rx="8" fill="#EBEEFC"/>
<path d="M19.3334 15.334V17.334" stroke="#3851DD" stroke-width="1.3" stroke-miterlimit="10" stroke-linecap="round" stroke-linejoin="round"/>
<path d="M24.6666 15.334V17.334" stroke="#3851DD" stroke-width="1.3" stroke-miterlimit="10" stroke-linecap="round" stroke-linejoin="round"/>
<path d="M16.3334 20.0605H27.6667" stroke="#3851DD" stroke-width="1.3" stroke-miterlimit="10" stroke-linecap="round" stroke-linejoin="round"/>
<path d="M28 19.6673V25.334C28 27.334 27 28.6673 24.6667 28.6673H19.3333C17 28.6673 16 27.334 16 25.334V19.6673C16 17.6673 17 16.334 19.3333 16.334H24.6667C27 16.334 28 17.6673 28 19.6673Z" stroke="#3851DD" stroke-width="1.3" stroke-miterlimit="10" stroke-linecap="round" stroke-linejoin="round"/>
<path d="M24.4631 23.1341H24.4691" stroke="#3851DD" stroke-width="1.3" stroke-linecap="round" stroke-linejoin="round"/>
<path d="M24.4631 25.1341H24.4691" stroke="#3851DD" stroke-width="1.3" stroke-linecap="round" stroke-linejoin="round"/>
<path d="M21.997 23.1341H22.003" stroke="#3851DD" stroke-width="1.3" stroke-linecap="round" stroke-linejoin="round"/>
<path d="M21.997 25.1341H22.003" stroke="#3851DD" stroke-width="1.3" stroke-linecap="round" stroke-linejoin="round"/>
<path d="M19.5295 23.1341H19.5355" stroke="#3851DD" stroke-width="1.3" stroke-linecap="round" stroke-linejoin="round"/>
<path d="M19.5295 25.1341H19.5355" stroke="#3851DD" stroke-width="1.3" stroke-linecap="round" stroke-linejoin="round"/>
</svg>
