<svg width="63" height="63" viewBox="0 0 63 63" fill="none" xmlns="http://www.w3.org/2000/svg">
<path d="M53.4357 9.67539C49.1003 5.33996 43.5766 2.3875 37.5632 1.19136C31.5498 -0.00478244 25.3167 0.609122 19.6522 2.95544C13.9877 5.30176 9.14614 9.27511 5.73982 14.373C2.3335 19.471 0.51538 25.4645 0.515381 31.5957C0.515382 37.7269 2.3335 43.7205 5.73983 48.8184C9.14615 53.9163 13.9877 57.8897 19.6522 60.236C25.3167 62.5823 31.5498 63.1962 37.5632 62C43.5766 60.8039 49.1003 57.8514 53.4357 53.516L46.7469 46.8272C43.7344 49.8397 39.8962 51.8913 35.7178 52.7225C31.5393 53.5536 27.2082 53.127 23.2721 51.4967C19.3361 49.8663 15.9719 47.1054 13.605 43.563C11.2381 40.0207 9.97474 35.856 9.97474 31.5957C9.97474 27.3354 11.2381 23.1707 13.605 19.6284C15.9719 16.086 19.3361 13.3251 23.2721 11.6947C27.2082 10.0644 31.5393 9.63781 35.7178 10.469C39.8962 11.3001 43.7344 13.3517 46.7469 16.3642L53.4357 9.67539Z" fill="#8F9198"/>
<path d="M28.4444 57.6858C28.139 60.2801 30.0022 62.6687 32.6127 62.5762C37.5087 62.4028 42.3178 61.0702 46.6338 58.6591C52.3333 55.4752 56.8821 50.5732 59.6317 44.652C62.3813 38.7308 63.1914 32.0926 61.9464 25.684C60.7014 19.2753 57.465 13.4232 52.6984 8.96215C47.9319 4.50106 41.8787 1.65867 35.4017 0.840208C28.9247 0.0217508 22.3547 1.26901 16.6282 4.40417C10.9018 7.53933 6.31137 12.4023 3.51133 18.2999C1.39093 22.7659 0.379253 27.6526 0.529947 32.5493C0.610294 35.1602 3.11693 36.8614 5.68528 36.3852C8.25363 35.9089 9.89414 33.4258 9.98879 30.8153C10.0945 27.9008 10.7916 25.0212 12.0565 22.3569C14.0021 18.259 17.1918 14.8799 21.1709 12.7014C25.1499 10.5229 29.7152 9.65622 34.2158 10.2249C38.7164 10.7936 42.9225 12.7687 46.2346 15.8685C49.5467 18.9684 51.7956 23.0347 52.6606 27.4879C53.5257 31.941 52.9628 36.5536 51.0523 40.668C49.1417 44.7824 45.9809 48.1886 42.0205 50.4009C39.4458 51.8393 36.6186 52.7253 33.7174 53.0234C31.119 53.2905 28.7497 55.0916 28.4444 57.6858Z" fill="#3851DD"/>
</svg>
