<svg width="25" height="25" viewBox="0 0 25 25" fill="none" xmlns="http://www.w3.org/2000/svg">
<path d="M18.167 8.48665C15.947 8.26665 13.7137 8.15332 11.487 8.15332C10.167 8.15332 8.84699 8.21999 7.52699 8.35332L6.16699 8.48665" stroke="#E1261C" stroke-linecap="round" stroke-linejoin="round"/>
<path d="M9.8335 7.8135L9.98016 6.94016C10.0868 6.30683 10.1668 5.8335 11.2935 5.8335H13.0402C14.1668 5.8335 14.2535 6.3335 14.3535 6.94683L14.5002 7.8135" stroke="#E1261C" stroke-linecap="round" stroke-linejoin="round"/>
<path d="M16.7334 10.5933L16.3001 17.3066C16.2268 18.3533 16.1668 19.1666 14.3068 19.1666H10.0268C8.16676 19.1666 8.10676 18.3533 8.03343 17.3066L7.6001 10.5933" stroke="#E1261C" stroke-linecap="round" stroke-linejoin="round"/>
<path d="M11.0537 15.5H13.2737" stroke="#E1261C" stroke-linecap="round" stroke-linejoin="round"/>
<path d="M10.5005 12.8335H13.8338" stroke="#E1261C" stroke-linecap="round" stroke-linejoin="round"/>
</svg>
