<svg width="17" height="16" viewBox="0 0 17 16" fill="none" xmlns="http://www.w3.org/2000/svg">
<path d="M11.9167 2.3735V1.3335C11.9167 1.06016 11.69 0.833496 11.4167 0.833496C11.1433 0.833496 10.9167 1.06016 10.9167 1.3335V2.3335H6.58332V1.3335C6.58332 1.06016 6.35666 0.833496 6.08332 0.833496C5.80999 0.833496 5.58332 1.06016 5.58332 1.3335V2.3735C3.78332 2.54016 2.90999 3.6135 2.77666 5.20683C2.76332 5.40016 2.92332 5.56016 3.10999 5.56016H14.39C14.5833 5.56016 14.7433 5.3935 14.7233 5.20683C14.59 3.6135 13.7167 2.54016 11.9167 2.3735Z" fill="#8F9198"/>
<path d="M14.0833 6.56006H3.41667C3.05 6.56006 2.75 6.86006 2.75 7.22673V11.3334C2.75 13.3334 3.75 14.6667 6.08333 14.6667H11.4167C13.75 14.6667 14.75 13.3334 14.75 11.3334V7.22673C14.75 6.86006 14.45 6.56006 14.0833 6.56006ZM6.89 12.1401C6.82333 12.2001 6.75 12.2467 6.67 12.2801C6.59 12.3134 6.50333 12.3334 6.41667 12.3334C6.33 12.3334 6.24333 12.3134 6.16333 12.2801C6.08333 12.2467 6.01 12.2001 5.94333 12.1401C5.82333 12.0134 5.75 11.8401 5.75 11.6667C5.75 11.4934 5.82333 11.3201 5.94333 11.1934C6.01 11.1334 6.08333 11.0867 6.16333 11.0534C6.32333 10.9867 6.51 10.9867 6.67 11.0534C6.75 11.0867 6.82333 11.1334 6.89 11.1934C7.01 11.3201 7.08333 11.4934 7.08333 11.6667C7.08333 11.8401 7.01 12.0134 6.89 12.1401ZM7.03 9.58673C6.99667 9.66673 6.95 9.74006 6.89 9.80673C6.82333 9.86673 6.75 9.91339 6.67 9.94673C6.59 9.98006 6.50333 10.0001 6.41667 10.0001C6.33 10.0001 6.24333 9.98006 6.16333 9.94673C6.08333 9.91339 6.01 9.86673 5.94333 9.80673C5.88333 9.74006 5.83667 9.66673 5.80333 9.58673C5.77 9.50673 5.75 9.42006 5.75 9.33339C5.75 9.24673 5.77 9.16006 5.80333 9.08006C5.83667 9.00006 5.88333 8.92673 5.94333 8.86006C6.01 8.80006 6.08333 8.75339 6.16333 8.72006C6.32333 8.65339 6.51 8.65339 6.67 8.72006C6.75 8.75339 6.82333 8.80006 6.89 8.86006C6.95 8.92673 6.99667 9.00006 7.03 9.08006C7.06333 9.16006 7.08333 9.24673 7.08333 9.33339C7.08333 9.42006 7.06333 9.50673 7.03 9.58673ZM9.22333 9.80673C9.15667 9.86673 9.08333 9.91339 9.00333 9.94673C8.92333 9.98006 8.83667 10.0001 8.75 10.0001C8.66333 10.0001 8.57667 9.98006 8.49667 9.94673C8.41667 9.91339 8.34333 9.86673 8.27667 9.80673C8.15667 9.68006 8.08333 9.50673 8.08333 9.33339C8.08333 9.16006 8.15667 8.98673 8.27667 8.86006C8.34333 8.80006 8.41667 8.75339 8.49667 8.72006C8.65667 8.64673 8.84333 8.64673 9.00333 8.72006C9.08333 8.75339 9.15667 8.80006 9.22333 8.86006C9.34333 8.98673 9.41667 9.16006 9.41667 9.33339C9.41667 9.50673 9.34333 9.68006 9.22333 9.80673Z" fill="#8F9198"/>
</svg>
