<svg width="25" height="25" viewBox="0 0 25 25" fill="none" xmlns="http://www.w3.org/2000/svg">
<path d="M7.69656 16.8717L7.69542 16.8706C7.43486 16.6251 7.29494 16.2404 7.3447 15.7974C7.34471 15.7973 7.34472 15.7972 7.34473 15.7971L7.59131 13.6379C7.60959 13.4786 7.67002 13.2768 7.76247 13.0778C7.85514 12.8782 7.96911 12.7048 8.07855 12.5928L8.07858 12.5929L8.08245 12.5888L13.5558 6.79545L13.5558 6.79544C14.203 6.11035 14.8233 5.80139 15.4129 5.78474C16.0026 5.76809 16.6394 6.04159 17.3246 6.68884C18.0097 7.33605 18.3186 7.95632 18.3353 8.54594C18.3519 9.1356 18.0784 9.77248 17.4312 10.4576C17.4312 10.4576 17.4312 10.4576 17.4312 10.4576L11.9579 16.251L11.9565 16.2524C11.7263 16.499 11.2729 16.743 10.9396 16.7976L10.9396 16.7976L10.9374 16.798L8.80849 17.1616C8.75691 17.1648 8.71701 17.1683 8.68214 17.1713C8.62652 17.1762 8.58372 17.1799 8.52682 17.1799C8.19514 17.1799 7.90069 17.0659 7.69656 16.8717ZM13.7978 7.011L13.7977 7.01109L8.32544 12.81C8.32524 12.8102 8.32504 12.8104 8.32484 12.8106C8.22199 12.9188 8.1324 13.0745 8.06809 13.2122C8.00306 13.3516 7.94307 13.5175 7.92328 13.661L7.92319 13.661L7.92231 13.6687L7.67591 15.8264C7.67586 15.8268 7.67581 15.8273 7.67576 15.8277C7.6409 16.1177 7.70577 16.4155 7.92461 16.6222C8.1451 16.8304 8.44345 16.8719 8.72342 16.8294L8.72343 16.8295L8.72961 16.8284L10.8763 16.4618L10.8768 16.4617C11.0244 16.4362 11.1891 16.3659 11.3239 16.2934C11.4588 16.2208 11.6068 16.1229 11.7082 16.0164L11.7091 16.0155L17.1825 10.2221L17.1831 10.2214C17.6064 9.77082 17.9604 9.27346 17.9954 8.69498C18.0314 8.09861 17.7257 7.52258 17.0898 6.92496C16.5267 6.38331 15.9883 6.10654 15.4535 6.10654C14.7935 6.10654 14.2624 6.51911 13.7978 7.011Z" stroke="#3851DD" stroke-width="0.666667"/>
<path d="M16.4208 11.1381L16.4211 11.1382C16.5068 11.1465 16.5746 11.2247 16.5688 11.3151C16.5546 11.4011 16.4765 11.4664 16.3935 11.4664H16.3934H16.3933H16.3932H16.3931H16.3931H16.393H16.3929H16.3928H16.3928H16.3927H16.3926H16.3925H16.3924H16.3924H16.3923H16.3922H16.3921H16.392H16.3919H16.3919H16.3918H16.3917H16.3916H16.3915H16.3915H16.3914H16.3913H16.3912H16.3911H16.3911H16.391H16.3909H16.3908H16.3907H16.3906H16.3906H16.3905H16.3904H16.3903H16.3902H16.3901H16.3901H16.39H16.3899H16.3898H16.3897H16.3896H16.3895H16.3895H16.3894H16.3893H16.3892H16.3891H16.389H16.3889H16.3889H16.3888H16.3887H16.3886H16.3885H16.3884H16.3883H16.3883H16.3882H16.3881H16.388H16.3879H16.3878H16.3877H16.3877H16.3876H16.3875H16.3874H16.3873H16.3872H16.3871H16.387H16.387H16.3869H16.3868H16.3867H16.3866H16.3865H16.3864H16.3863H16.3862H16.3862H16.3861H16.386H16.3859H16.3858H16.3857H16.3856H16.3855H16.3854H16.3853H16.3853H16.3852H16.3851H16.385H16.3849H16.3848H16.3847H16.3846H16.3845H16.3844H16.3843H16.3843H16.3842H16.3841H16.384H16.3839H16.3838H16.3837H16.3836H16.3835H16.3834H16.3833H16.3833H16.3832H16.3831H16.383H16.3829H16.3828H16.3827H16.3826H16.3825H16.3824H16.3823H16.3822H16.3821H16.382H16.382H16.3819H16.3818H16.3817H16.3816H16.3815H16.3814H16.3813H16.3812H16.3811H16.381H16.3809H16.3808H16.3807H16.3806H16.3805H16.3805H16.3804H16.3803H16.3802H16.3801H16.38H16.3799H16.3798H16.3797H16.3796H16.3795H16.3794H16.3793H16.3792H16.3791H16.379H16.3789H16.3788H16.3787H16.3787H16.3786H16.3785H16.3784H16.3783H16.3782H16.3781H16.378H16.3779H16.3778H16.3777H16.3776H16.3775H16.3774H16.3773H16.3772H16.3771H16.377H16.3769H16.3768H16.3767H16.3766H16.3765H16.3764H16.3764H16.3763H16.3762H16.3761H16.376H16.3759H16.3758H16.3757H16.3756H16.3755H16.3754H16.3753H16.3752H16.3751H16.375H16.3749H16.3748H16.3747H16.3746H16.3745H16.3744H16.3743H16.3742H16.3741H16.374H16.3739H16.3738H16.3737H16.3736H16.3735H16.3734H16.3733H16.3732H16.3732H16.3731H16.373H16.3729H16.3728H16.3727H16.3726H16.3725H16.3724H16.3723H16.3722H16.3721H16.372H16.3719H16.3718H16.3717H16.3716H16.3715H16.3714H16.3713H16.3712H16.3711H16.371H16.3709H16.3708H16.3707H16.3706H16.3705H16.3704H16.3703H16.3702H16.3701H16.37H16.3699H16.3698H16.3697H16.3696H16.3695H16.3694H16.3693H16.3692H16.3692H16.3691H16.369H16.3689H16.3688H16.3687H16.3686H16.3685H16.3684H16.3683H16.3682H16.3681H16.368H16.3679H16.3678H16.3677H16.3676H16.3675H16.3674H16.3673H16.3672H16.3671H16.367H16.3669H16.3668H16.3667H16.3666H16.3665H16.3664H16.3663H16.3662H16.3661H16.366H16.3659H16.3658H16.3657H16.3656H16.3655H16.3655H16.3654H16.3653H16.3652H16.3651H16.365H16.3649H16.3648H16.3647H16.3646H16.3645H16.3644H16.3643H16.3642H16.3641H16.364H16.3639H16.3638H16.3637H16.3636C14.4425 11.2682 12.8996 9.80698 12.6031 7.8971C12.5906 7.80748 12.6503 7.7207 12.7456 7.70237C12.8349 7.69135 12.9208 7.75195 12.9379 7.84756C13.2158 9.60877 14.6432 10.9633 16.4208 11.1381Z" stroke="#3851DD" stroke-width="0.666667"/>
<path d="M18.8335 19.3332H6.8335C6.74426 19.3332 6.66683 19.2557 6.66683 19.1665C6.66683 19.0773 6.74426 18.9998 6.8335 18.9998H18.8335C18.9227 18.9998 19.0002 19.0773 19.0002 19.1665C19.0002 19.2557 18.9227 19.3332 18.8335 19.3332Z" stroke="#3851DD" stroke-width="0.666667"/>
</svg>
