<svg width="14" height="15" viewBox="0 0 14 15" fill="none" xmlns="http://www.w3.org/2000/svg">
<path opacity="0.4" d="M12.25 13.6403H1.75C1.51083 13.6403 1.3125 13.4315 1.3125 13.1798C1.3125 12.928 1.51083 12.7192 1.75 12.7192H12.25C12.4892 12.7192 12.6875 12.928 12.6875 13.1798C12.6875 13.4315 12.4892 13.6403 12.25 13.6403Z" fill="#8F9198"/>
<path opacity="0.4" d="M11.0948 2.26825C9.96317 1.07702 8.85484 1.04632 7.69401 2.26825L6.98817 3.01123C6.92984 3.07264 6.90651 3.17088 6.92984 3.25685C7.37317 4.88404 8.60984 6.1858 10.1557 6.65246C10.179 6.6586 10.2023 6.66474 10.2257 6.66474C10.2898 6.66474 10.3482 6.64018 10.3948 6.59106L11.0948 5.84808C11.6723 5.24632 11.9523 4.66299 11.9523 4.07352C11.9582 3.46562 11.6782 2.87615 11.0948 2.26825Z" fill="#8F9198"/>
<path d="M9.10586 7.2111C8.93669 7.12514 8.77336 7.03917 8.61586 6.94093C8.48752 6.8611 8.36502 6.77514 8.24252 6.68303C8.14336 6.61549 8.02669 6.51724 7.91586 6.419C7.90419 6.41286 7.86336 6.37602 7.81669 6.32689C7.62419 6.15496 7.40836 5.93391 7.21586 5.6883C7.19836 5.67602 7.16919 5.63303 7.12836 5.57777C7.07002 5.50409 6.97086 5.38128 6.88336 5.24005C6.81336 5.14795 6.73169 5.01286 6.65586 4.87777C6.56252 4.71198 6.48086 4.54619 6.39919 4.37426C6.31752 4.19005 6.25336 4.01198 6.19502 3.84619L2.53169 7.70233C2.45586 7.78216 2.38586 7.93567 2.36836 8.04005L2.05336 10.3918C1.99502 10.8094 2.10586 11.2023 2.35086 11.4664C2.56086 11.6813 2.85252 11.7979 3.16752 11.7979C3.23752 11.7979 3.30752 11.7918 3.37752 11.7795L5.61752 11.4479C5.72252 11.4295 5.86836 11.3558 5.93836 11.276L9.60169 7.41988C9.43836 7.35847 9.28086 7.29093 9.10586 7.2111Z" fill="#8F9198"/>
</svg>
