<svg width="54" height="54" viewBox="0 0 54 54" fill="none" xmlns="http://www.w3.org/2000/svg">
<g filter="url(#filter0_dd_1784_19523)">
<rect x="7" y="4" width="40" height="40" rx="8" fill="white"/>
</g>
<path d="M28.26 15.5992L20.05 24.2892C19.74 24.6192 19.44 25.2692 19.38 25.7192L19.01 28.9592C18.88 30.1292 19.72 30.9292 20.88 30.7292L24.1 30.1792C24.55 30.0992 25.18 29.7692 25.49 29.4292L33.7 20.7392C35.12 19.2392 35.76 17.5292 33.55 15.4392C31.35 13.3692 29.68 14.0992 28.26 15.5992Z" stroke="#8F9198" stroke-width="1.5" stroke-miterlimit="10" stroke-linecap="round" stroke-linejoin="round"/>
<path d="M26.89 17.0508C27.32 19.8108 29.56 21.9208 32.34 22.2008" stroke="#8F9198" stroke-width="1.5" stroke-miterlimit="10" stroke-linecap="round" stroke-linejoin="round"/>
<path d="M18 34H36" stroke="#8F9198" stroke-width="1.5" stroke-miterlimit="10" stroke-linecap="round" stroke-linejoin="round"/>
<defs>
<filter id="filter0_dd_1784_19523" x="0" y="0" width="54" height="54" filterUnits="userSpaceOnUse" color-interpolation-filters="sRGB">
<feFlood flood-opacity="0" result="BackgroundImageFix"/>
<feColorMatrix in="SourceAlpha" type="matrix" values="0 0 0 0 0 0 0 0 0 0 0 0 0 0 0 0 0 0 127 0" result="hardAlpha"/>
<feOffset/>
<feGaussianBlur stdDeviation="0.5"/>
<feColorMatrix type="matrix" values="0 0 0 0 0.756863 0 0 0 0 0.760784 0 0 0 0 0.776471 0 0 0 0.4 0"/>
<feBlend mode="normal" in2="BackgroundImageFix" result="effect1_dropShadow_1784_19523"/>
<feColorMatrix in="SourceAlpha" type="matrix" values="0 0 0 0 0 0 0 0 0 0 0 0 0 0 0 0 0 0 127 0" result="hardAlpha"/>
<feMorphology radius="1" operator="dilate" in="SourceAlpha" result="effect2_dropShadow_1784_19523"/>
<feOffset dy="3"/>
<feGaussianBlur stdDeviation="3"/>
<feColorMatrix type="matrix" values="0 0 0 0 0.756863 0 0 0 0 0.760784 0 0 0 0 0.776471 0 0 0 0.46 0"/>
<feBlend mode="normal" in2="effect1_dropShadow_1784_19523" result="effect2_dropShadow_1784_19523"/>
<feBlend mode="normal" in="SourceGraphic" in2="effect2_dropShadow_1784_19523" result="shape"/>
</filter>
</defs>
</svg>
