<svg width="57" height="34" viewBox="0 0 57 34" fill="none" xmlns="http://www.w3.org/2000/svg">
<path d="M16.63 13.0711L12.525 17.4161C12.37 17.5811 12.22 17.9061 12.19 18.1311L12.005 19.7511C11.94 20.3361 12.36 20.7361 12.94 20.6361L14.55 20.3611C14.775 20.3211 15.09 20.1561 15.245 19.9861L19.35 15.6411C20.06 14.8911 20.38 14.0361 19.275 12.9911C18.175 11.9561 17.34 12.3211 16.63 13.0711Z" stroke="#3851DD" stroke-miterlimit="10" stroke-linecap="round" stroke-linejoin="round"/>
<path d="M15.9449 13.7969C16.1599 15.1769 17.2799 16.2319 18.6699 16.3719" stroke="#3851DD" stroke-width="1.5" stroke-miterlimit="10" stroke-linecap="round" stroke-linejoin="round"/>
<path d="M11.5 22.2715H20.5" stroke="#3851DD" stroke-miterlimit="10" stroke-linecap="round" stroke-linejoin="round"/>
<path d="M27.0694 21.7715H32.6974V20.6915H28.4134V18.0875H32.2414V17.0195H28.4134V14.6915H32.6974V13.6115H27.0694V21.7715ZM36.3812 21.9275C37.1132 21.9275 37.7132 21.5915 38.1212 20.9915V21.7715H39.4052V13.1315H38.1212V16.0955C37.7132 15.5075 37.1132 15.2075 36.3812 15.2075C34.7132 15.2075 33.6692 16.4075 33.6692 18.5795C33.6692 20.6675 34.6892 21.9275 36.3812 21.9275ZM36.5492 20.8475C35.5532 20.8475 34.9772 20.0315 34.9772 18.5795C34.9772 17.1035 35.5292 16.2875 36.5492 16.2875C37.5452 16.2875 38.1212 17.1155 38.1212 18.5795C38.1212 20.0555 37.5692 20.8475 36.5492 20.8475ZM40.9538 14.5835H42.2378V13.1315H40.9538V14.5835ZM40.9538 21.7715H42.2378V15.3755H40.9538V21.7715ZM43.9578 19.8635C43.9578 21.2435 44.5458 21.9275 45.7938 21.9275C46.1538 21.9275 46.4538 21.8795 46.5978 21.8075V20.8715H46.3458C45.4458 20.8715 45.2418 20.5235 45.2418 19.7915V16.3715H46.6218V15.3755H45.2418V13.8995H43.9578V15.3755H43.0938V16.3715H43.9578V19.8635Z" fill="#3851DD"/>
<rect x="0.5" y="1.27148" width="56" height="32" rx="7.5" stroke="#3851DD"/>
</svg>
