<svg width="16" height="16" viewBox="0 0 16 16" fill="none" xmlns="http://www.w3.org/2000/svg">
<path opacity="0.4" d="M11.2 6H4.80004C2.66671 6 1.33337 7.33333 1.33337 9.46667V11.1933C1.33337 13.3333 2.66671 14.6667 4.80004 14.6667H11.1934C13.3267 14.6667 14.66 13.3333 14.66 11.2V9.46667C14.6667 7.33333 13.3334 6 11.2 6Z" fill="#5E606A"/>
<path d="M10.5866 3.71329L8.35331 1.47996C8.15998 1.28663 7.83998 1.28663 7.64664 1.47996L5.41331 3.71329C5.21998 3.90663 5.21998 4.22663 5.41331 4.41996C5.60664 4.61329 5.92664 4.61329 6.11998 4.41996L7.49998 3.03996V10.1666C7.49998 10.44 7.72664 10.6666 7.99998 10.6666C8.27331 10.6666 8.49998 10.44 8.49998 10.1666V3.03996L9.87998 4.41996C9.97998 4.51996 10.1066 4.56663 10.2333 4.56663C10.36 4.56663 10.4866 4.51996 10.5866 4.41996C10.7866 4.22663 10.7866 3.91329 10.5866 3.71329Z" fill="#5E606A"/>
</svg>
