<svg width="16" height="17" viewBox="0 0 16 17" fill="none" xmlns="http://www.w3.org/2000/svg">
<path opacity="0.4" d="M14.1668 6.59995C12.6268 4.17995 10.3735 2.78662 8.00016 2.78662C6.8135 2.78662 5.66016 3.13329 4.60683 3.77995C3.5535 4.43329 2.60683 5.38662 1.8335 6.59995C1.16683 7.64662 1.16683 9.34662 1.8335 10.3933C3.3735 12.82 5.62683 14.2066 8.00016 14.2066C9.18683 14.2066 10.3402 13.86 11.3935 13.2133C12.4468 12.56 13.3935 11.6066 14.1668 10.3933C14.8335 9.35329 14.8335 7.64662 14.1668 6.59995ZM8.00016 11.1933C6.50683 11.1933 5.30683 9.98662 5.30683 8.49995C5.30683 7.01329 6.50683 5.80662 8.00016 5.80662C9.4935 5.80662 10.6935 7.01329 10.6935 8.49995C10.6935 9.98662 9.4935 11.1933 8.00016 11.1933Z" fill="#8F9198"/>
<path d="M7.99855 6.59326C7.49375 6.59326 7.00963 6.79379 6.65269 7.15074C6.29574 7.50768 6.09521 7.9918 6.09521 8.49659C6.09521 9.00139 6.29574 9.48551 6.65269 9.84245C7.00963 10.1994 7.49375 10.3999 7.99855 10.3999C9.04522 10.3999 9.90522 9.54659 9.90522 8.49993C9.90522 7.45326 9.04522 6.59326 7.99855 6.59326Z" fill="#8F9198"/>
</svg>
