<svg width="39" height="28" viewBox="0 0 39 28" fill="none" xmlns="http://www.w3.org/2000/svg">
<rect x="0.833496" y="0.5" width="38" height="27" rx="4" fill="#E8F1FC"/>
<path d="M11.7095 18.5V10.34H13.0535V13.76H17.0135V10.34H18.3575V18.5H17.0135V14.852H13.0535V18.5H11.7095ZM23.7478 18.656C21.3118 18.656 19.8238 17.048 19.8238 14.432C19.8238 11.816 21.3118 10.184 23.7478 10.184C26.1598 10.184 27.6598 11.816 27.6598 14.432C27.6598 15.764 27.2638 16.844 26.5678 17.576L27.6598 18.488L26.9758 19.316L25.6678 18.224C25.1278 18.512 24.4798 18.656 23.7478 18.656ZM23.7478 17.528C24.0838 17.528 24.3838 17.48 24.6478 17.384L23.4478 16.376L24.1318 15.536L25.5838 16.748C26.0398 16.208 26.2918 15.416 26.2918 14.432C26.2918 12.5 25.3438 11.312 23.7478 11.312C22.1398 11.312 21.1918 12.5 21.1918 14.432C21.1918 16.352 22.1398 17.528 23.7478 17.528Z" fill="#1C75E1"/>
</svg>
