<svg width="12" height="11" viewBox="0 0 12 11" fill="none" xmlns="http://www.w3.org/2000/svg">
<path d="M2.46875 7.59375C3.69792 7.09375 4.875 6.84375 6 6.84375C7.125 6.84375 8.29167 7.09375 9.5 7.59375C10.7292 8.07292 11.3438 8.70833 11.3438 9.5V10.8438H0.65625V9.5C0.65625 8.70833 1.26042 8.07292 2.46875 7.59375ZM7.875 4.71875C7.35417 5.23958 6.72917 5.5 6 5.5C5.27083 5.5 4.64583 5.23958 4.125 4.71875C3.60417 4.19792 3.34375 3.57292 3.34375 2.84375C3.34375 2.11458 3.60417 1.48958 4.125 0.96875C4.64583 0.427083 5.27083 0.15625 6 0.15625C6.72917 0.15625 7.35417 0.427083 7.875 0.96875C8.39583 1.48958 8.65625 2.11458 8.65625 2.84375C8.65625 3.57292 8.39583 4.19792 7.875 4.71875Z" fill="#3851DD"/>
</svg>
