<svg width="24" height="25" viewBox="0 0 24 25" fill="none" xmlns="http://www.w3.org/2000/svg">
<path d="M9 20.4141H6.75C5.35761 20.4141 4.02226 19.8609 3.03769 18.8764C2.05312 17.8918 1.5 16.5564 1.5 15.1641C1.5 13.7717 2.05312 12.4363 3.03769 11.4518C4.02226 10.4672 5.35761 9.91406 6.75 9.91406C7.18925 9.9139 7.62687 9.96742 8.05313 10.0734" stroke="#8F9198" stroke-linecap="round" stroke-linejoin="round"/>
<path d="M7.5 12.9141C7.5 11.7257 7.7824 10.5543 8.32393 9.49646C8.86545 8.43862 9.6506 7.52461 10.6147 6.82975C11.5787 6.13488 12.6941 5.67906 13.8689 5.49984C15.0437 5.32062 16.2443 5.42314 17.3717 5.79894C18.4991 6.17474 19.5211 6.81307 20.3534 7.66132C21.1857 8.50958 21.8045 9.54347 22.1589 10.6778C22.5132 11.8121 22.5929 13.0144 22.3914 14.1856C22.1899 15.3568 21.713 16.4634 21 17.4141" stroke="#8F9198" stroke-linecap="round" stroke-linejoin="round"/>
<path d="M11.0719 16.0922L14.25 12.9141L17.4281 16.0922" stroke="#8F9198" stroke-linecap="round" stroke-linejoin="round"/>
<path d="M14.25 20.4141V12.9141" stroke="#8F9198" stroke-linecap="round" stroke-linejoin="round"/>
</svg>
