<svg width="56" height="28" viewBox="0 0 56 28" fill="none" xmlns="http://www.w3.org/2000/svg">
<rect x="0.166992" y="0.5" width="55" height="27" rx="4" fill="#E8F1FC"/>
<path d="M11.043 18.5V10.34H12.387V14.252L15.903 10.34H17.535L13.875 14.348L17.655 18.5H15.903L12.387 14.648V18.5H11.043ZM23.83 16.412C23.482 17.9 22.378 18.656 20.878 18.656C18.994 18.656 17.842 17.396 17.842 15.308C17.842 13.136 18.994 11.936 20.818 11.936C22.666 11.936 23.782 13.184 23.782 15.236V15.548H19.15C19.222 16.856 19.834 17.588 20.878 17.588C21.694 17.588 22.27 17.204 22.486 16.412H23.83ZM20.818 13.004C19.894 13.004 19.342 13.592 19.186 14.672H22.45C22.294 13.592 21.73 13.004 20.818 13.004ZM25.0681 18.5V12.104H26.3521V12.956C26.7841 12.272 27.4561 11.936 28.2841 11.936C29.6161 11.936 30.4441 12.716 30.4441 14.228V18.5H29.1721V14.492C29.1721 13.568 28.7641 13.004 27.8881 13.004C26.9281 13.004 26.3521 13.856 26.3521 14.744V18.5H25.0681ZM32.2038 21.296C31.9278 21.296 31.6398 21.224 31.4958 21.176V20.192H31.8438C32.5758 20.192 32.8518 20.048 33.4038 18.716L33.5958 18.272L31.0278 12.104H32.4078L33.9918 16.088L34.2678 16.964L34.5438 16.088L36.0798 12.104H37.3878L34.4838 19.244C33.8358 20.84 33.3438 21.296 32.2038 21.296ZM39.2762 14.192H37.9922C38.1962 12.776 39.1682 11.936 40.7642 11.936C42.5042 11.936 43.3682 12.956 43.3682 14.444V16.94C43.3682 17.708 43.4402 18.152 43.5842 18.5H42.2402C42.1442 18.26 42.1082 17.924 42.0962 17.564C41.5562 18.32 40.7282 18.656 39.9602 18.656C38.6642 18.656 37.7762 18.044 37.7762 16.82C37.7762 15.944 38.2562 15.296 39.2162 14.972C40.0682 14.684 40.9322 14.612 42.0842 14.6V14.456C42.0842 13.52 41.6522 13.016 40.6682 13.016C39.8402 13.016 39.3962 13.472 39.2762 14.192ZM39.0722 16.772C39.0722 17.312 39.5162 17.648 40.2002 17.648C41.2682 17.648 42.0842 16.796 42.0842 15.764V15.476C39.6242 15.5 39.0722 16.04 39.0722 16.772Z" fill="#1C75E1"/>
</svg>
