<svg width="178" height="28" viewBox="0 0 178 28" fill="none" xmlns="http://www.w3.org/2000/svg">
<path d="M1.248 19.3164V8.43641H4.976C7.44 8.43641 8.992 9.74841 8.992 11.8764C8.992 14.0684 7.424 15.3484 4.992 15.3484H2.72V19.3164H1.248ZM4.96 9.63641H2.72V14.1484H4.912C6.528 14.1484 7.472 13.2844 7.472 11.8924C7.472 10.5164 6.512 9.63641 4.96 9.63641ZM14.201 19.5084C11.769 19.5084 10.313 17.8444 10.313 15.0764C10.313 12.1964 11.817 10.6124 14.201 10.6124C16.633 10.6124 18.089 12.3084 18.089 15.0764C18.089 17.9404 16.585 19.5084 14.201 19.5084ZM14.201 18.2924C15.785 18.2924 16.649 17.1564 16.649 15.0764C16.649 13.0124 15.769 11.8284 14.201 11.8284C12.617 11.8284 11.753 12.9804 11.753 15.0764C11.753 17.1244 12.633 18.2924 14.201 18.2924ZM27.105 19.3164L25.265 12.9644L25.073 12.0044L24.881 12.9644L23.057 19.3164H21.313L18.785 10.8204H20.305L22.049 17.4124L22.257 18.2764L22.465 17.4124L24.401 10.8204H25.921L27.857 17.4124L28.049 18.2444L28.225 17.4124L29.969 10.8204H31.425L28.881 19.3164H27.105ZM39.964 16.5484C39.5 18.5324 38.076 19.5084 36.14 19.5084C33.676 19.5084 32.188 17.8444 32.188 15.0764C32.188 12.1964 33.676 10.6124 36.06 10.6124C38.46 10.6124 39.9 12.2604 39.9 14.9644V15.3164H33.628C33.708 17.2204 34.604 18.2924 36.14 18.2924C37.34 18.2924 38.188 17.7164 38.492 16.5484H39.964ZM36.06 11.8284C34.7 11.8284 33.884 12.6764 33.676 14.2604H38.428C38.236 12.6924 37.388 11.8284 36.06 11.8284ZM41.7763 19.3164V10.8204H43.1843V12.1324C43.7603 11.0924 44.6723 10.6124 45.6963 10.6124C46.0323 10.6124 46.3363 10.6924 46.4963 10.8204V12.0844C46.2563 12.0044 45.9523 11.9724 45.6163 11.9724C43.9203 11.9724 43.1843 13.0284 43.1843 14.5644V19.3164H41.7763ZM54.9328 16.5484C54.4688 18.5324 53.0448 19.5084 51.1088 19.5084C48.6448 19.5084 47.1568 17.8444 47.1568 15.0764C47.1568 12.1964 48.6448 10.6124 51.0288 10.6124C53.4288 10.6124 54.8688 12.2604 54.8688 14.9644V15.3164H48.5968C48.6768 17.2204 49.5728 18.2924 51.1088 18.2924C52.3088 18.2924 53.1568 17.7164 53.4608 16.5484H54.9328ZM51.0288 11.8284C49.6688 11.8284 48.8528 12.6764 48.6448 14.2604H53.3968C53.2048 12.6924 52.3568 11.8284 51.0288 11.8284ZM59.929 19.5084C57.673 19.5084 56.313 17.8444 56.313 15.0764C56.313 12.1964 57.705 10.6124 59.929 10.6124C60.937 10.6124 61.753 11.0284 62.313 11.8124V7.79641H63.721V19.3164H62.313V18.2444C61.753 19.0444 60.937 19.5084 59.929 19.5084ZM60.025 18.2924C61.513 18.2924 62.313 17.1564 62.313 15.0764C62.313 13.0124 61.481 11.8284 60.025 11.8284C58.553 11.8284 57.753 12.9804 57.753 15.0764C57.753 17.1244 58.585 18.2924 60.025 18.2924ZM70.5749 19.3164H69.1669V7.79641H70.5749V11.8764C71.1349 11.0764 71.9509 10.6124 72.9589 10.6124C75.2149 10.6124 76.5749 12.2764 76.5749 15.0444C76.5749 17.9244 75.1829 19.5084 72.9589 19.5084C71.9509 19.5084 71.1349 19.0924 70.5749 18.3084V19.3164ZM72.8629 11.8284C71.3749 11.8284 70.5749 12.9644 70.5749 15.0444C70.5749 17.1084 71.4069 18.2924 72.8629 18.2924C74.3349 18.2924 75.1349 17.1404 75.1349 15.0444C75.1349 12.9964 74.3029 11.8284 72.8629 11.8284ZM78.5353 23.0284C78.2153 23.0284 77.8793 22.9484 77.7033 22.9004V21.8124H78.1353C79.1753 21.8124 79.4633 21.6044 80.2953 19.7004L80.5833 19.0444L77.1113 10.8204H78.6313L80.9353 16.4364L81.3193 17.5724L81.7033 16.4364L83.9433 10.8204H85.3833L81.4153 20.4364C80.5673 22.4844 80.0073 23.0284 78.5353 23.0284Z" fill="#F0F0F1"/>
<path d="M102.577 25.0577H98.5938L108.153 3.15137H112.534L121.695 25.0577H117.712L115.322 19.0832H108.153L109.348 15.4986H113.729L110.144 7.13433L102.577 25.0577Z" fill="#DADADD"/>
<path fill-rule="evenodd" clip-rule="evenodd" d="M122.859 3.15137H137.778V6.41456H126.712V12.1625H137.15V15.6804H126.712V25.1421H122.859V3.15137Z" fill="#DADADD"/>
<path fill-rule="evenodd" clip-rule="evenodd" d="M139.135 3.15137V25.1421H154.054V21.6242H142.987V15.6804H153.425V12.1625H142.987V6.41456H154.054V3.15137H139.135Z" fill="#DADADD"/>
<path d="M166.169 17.1339L155.229 3.21803L159.889 3.24023L166.214 11.0526L172.14 3.1958H177.156L166.169 17.1339Z" fill="#DADADD"/>
<path d="M166.2 11.1623L177.188 25.0661L172.373 25.186L166.16 17.415L160.055 25.1736L154.98 25.1825L166.2 11.1623Z" fill="#E1261C"/>
</svg>
