<svg width="61" height="28" viewBox="0 0 61 28" fill="none" xmlns="http://www.w3.org/2000/svg">
<rect x="0.833496" y="0.5" width="60" height="27" rx="4" fill="#E8F1FC"/>
<path d="M11.7095 18.5V10.34H13.1135L16.5335 15.668L17.0495 16.628L17.0135 10.34H18.3575V18.5H16.9535L13.5455 13.196L13.0175 12.2L13.0535 18.5H11.7095ZM20.0158 11.312V9.86H21.2998V11.312H20.0158ZM20.0158 18.5V12.104H21.2998V18.5H20.0158ZM25.1558 18.536C23.5238 18.536 22.5398 17.288 22.5398 15.248C22.5398 13.112 23.5478 11.936 25.1558 11.936C25.9718 11.936 26.5838 12.224 26.9918 12.776V12.104H28.2758V18.704C28.2758 20.456 27.1118 21.308 25.5758 21.308C24.0398 21.308 22.9358 20.588 22.7078 19.1H23.9918C24.1118 19.868 24.7238 20.276 25.5638 20.276C26.4158 20.276 26.9918 19.832 26.9918 18.728V17.648C26.5598 18.236 25.9358 18.536 25.1558 18.536ZM25.4198 17.456C26.4398 17.456 26.9918 16.676 26.9918 15.236C26.9918 13.832 26.4158 13.016 25.4198 13.016C24.3998 13.016 23.8478 13.796 23.8478 15.248C23.8478 16.652 24.4118 17.456 25.4198 17.456ZM35.5122 16.412C35.1642 17.9 34.0602 18.656 32.5602 18.656C30.6762 18.656 29.5242 17.396 29.5242 15.308C29.5242 13.136 30.6762 11.936 32.5002 11.936C34.3482 11.936 35.4642 13.184 35.4642 15.236V15.548H30.8322C30.9042 16.856 31.5162 17.588 32.5602 17.588C33.3762 17.588 33.9522 17.204 34.1682 16.412H35.5122ZM32.5002 13.004C31.5762 13.004 31.0242 13.592 30.8682 14.672H34.1322C33.9762 13.592 33.4122 13.004 32.5002 13.004ZM36.7502 18.5V12.104H38.0342V13.052C38.4542 12.284 39.1142 11.936 39.8582 11.936C40.1102 11.936 40.3502 11.996 40.4702 12.104V13.232C40.2782 13.172 40.0502 13.148 39.7862 13.148C38.5622 13.148 38.0342 13.892 38.0342 15.008V18.5H36.7502ZM41.344 11.312V9.86H42.628V11.312H41.344ZM41.344 18.5V12.104H42.628V18.5H41.344ZM45.3919 14.192H44.1079C44.3119 12.776 45.2839 11.936 46.8799 11.936C48.6199 11.936 49.4839 12.956 49.4839 14.444V16.94C49.4839 17.708 49.5559 18.152 49.6999 18.5H48.3559C48.2599 18.26 48.2239 17.924 48.2119 17.564C47.6719 18.32 46.8439 18.656 46.0759 18.656C44.7799 18.656 43.8919 18.044 43.8919 16.82C43.8919 15.944 44.3719 15.296 45.3319 14.972C46.1839 14.684 47.0479 14.612 48.1999 14.6V14.456C48.1999 13.52 47.7679 13.016 46.7839 13.016C45.9559 13.016 45.5119 13.472 45.3919 14.192ZM45.1879 16.772C45.1879 17.312 45.6319 17.648 46.3159 17.648C47.3839 17.648 48.1999 16.796 48.1999 15.764V15.476C45.7399 15.5 45.1879 16.04 45.1879 16.772Z" fill="#1C75E1"/>
</svg>
