<svg width="24" height="24" viewBox="0 0 24 24" fill="none" xmlns="http://www.w3.org/2000/svg">
<path d="M17.6005 10.1633V9.6C17.6005 6.50721 15.0933 4 12.0005 4C8.90767 4 6.40047 6.50721 6.40047 9.6V10.1633C6.40047 10.8393 6.20037 11.5001 5.8254 12.0626L4.90652 13.4409C4.06721 14.6999 4.70795 16.4111 6.16772 16.8092C9.98648 17.8507 14.0145 17.8507 17.8332 16.8092C19.293 16.4111 19.9337 14.6999 19.0944 13.4409L18.1755 12.0626C17.8006 11.5001 17.6005 10.8393 17.6005 10.1633Z" stroke="#C1C2C6"/>
<path d="M8.40002 17.6C8.92405 18.9982 10.338 20 12 20C13.6621 20 15.076 18.9982 15.6 17.6" stroke="#C1C2C6" stroke-linecap="round"/>
<path d="M12 7.19995V10.4" stroke="#C1C2C6" stroke-width="1.5" stroke-linecap="round"/>
</svg>
