<svg width="133" height="20" viewBox="0 0 133 20" fill="none" xmlns="http://www.w3.org/2000/svg">
<path d="M6.01325 3.89312L2.41992 6.69312C1.81992 7.15978 1.33325 8.15312 1.33325 8.90645V13.8464C1.33325 15.3931 2.59325 16.6598 4.13992 16.6598H11.8599C13.4066 16.6598 14.6666 15.3931 14.6666 13.8531V8.99978C14.6666 8.19312 14.1266 7.15978 13.4666 6.69978L9.34659 3.81312C8.41325 3.15978 6.91325 3.19312 6.01325 3.89312Z" stroke="#8F9198" stroke-width="1.5" stroke-linecap="round" stroke-linejoin="round"/>
<path d="M8 13.9932V11.9932" stroke="#8F9198" stroke-width="1.5" stroke-linecap="round" stroke-linejoin="round"/>
<path d="M32.4551 13.96L35.7151 10.7C36.1001 10.315 36.1001 9.68504 35.7151 9.30004L32.4551 6.04004" stroke="#8F9198" stroke-width="1.5" stroke-miterlimit="10" stroke-linecap="round" stroke-linejoin="round"/>
<path d="M56.512 14.656C54.076 14.656 52.588 13.048 52.588 10.432C52.588 7.816 54.076 6.184 56.512 6.184C58.924 6.184 60.424 7.816 60.424 10.432C60.424 13.048 58.924 14.656 56.512 14.656ZM56.512 13.528C58.108 13.528 59.056 12.352 59.056 10.432C59.056 8.5 58.108 7.312 56.512 7.312C54.916 7.312 53.956 8.5 53.956 10.432C53.956 12.352 54.916 13.528 56.512 13.528ZM61.0717 9.1V8.104H61.9357V7.768C61.9357 6.376 62.5237 5.704 63.7237 5.704C64.0477 5.704 64.2997 5.764 64.4317 5.824V6.688H64.3117C63.4237 6.688 63.2077 7.048 63.2077 7.78V8.104H64.4317V9.1H63.2077V14.5H61.9357V9.1H61.0717ZM64.5053 9.088V8.104H65.3453V7.768C65.3453 6.376 65.9453 5.704 67.1453 5.704C67.4693 5.704 67.7213 5.764 67.8413 5.824V6.688H67.7333C66.8453 6.688 66.6293 7.048 66.6293 7.78V8.104H67.8413V9.088H66.6293V14.5H65.3453V9.088H64.5053ZM68.6213 7.312V5.86H69.9053V7.312H68.6213ZM68.6213 14.5V8.104H69.9053V14.5H68.6213ZM76.86 10.336H75.576C75.42 9.424 74.832 9.016 74.088 9.016C73.02 9.016 72.444 9.832 72.444 11.308C72.444 12.76 73.044 13.588 74.124 13.588C74.892 13.588 75.432 13.168 75.624 12.352H76.896C76.62 13.948 75.516 14.656 74.1 14.656C72.252 14.656 71.136 13.384 71.136 11.308C71.136 9.136 72.276 7.936 74.088 7.936C75.516 7.936 76.644 8.74 76.86 10.336ZM83.7685 12.412C83.4205 13.9 82.3165 14.656 80.8165 14.656C78.9325 14.656 77.7805 13.396 77.7805 11.308C77.7805 9.136 78.9325 7.936 80.7565 7.936C82.6045 7.936 83.7205 9.184 83.7205 11.236V11.548H79.0885C79.1605 12.856 79.7725 13.588 80.8165 13.588C81.6325 13.588 82.2085 13.204 82.4245 12.412H83.7685ZM80.7565 9.004C79.8325 9.004 79.2805 9.592 79.1245 10.672H82.3885C82.2325 9.592 81.6685 9.004 80.7565 9.004ZM92.8668 14.5L92.1708 12.664H88.4508L87.7548 14.5H86.4108L89.5548 6.34H91.1268L94.2708 14.5H92.8668ZM90.0708 8.428L88.8588 11.608H91.7628L90.5508 8.428L90.3108 7.636L90.0708 8.428ZM97.4847 14.656C95.7927 14.656 94.7727 13.396 94.7727 11.308C94.7727 9.136 95.8167 7.936 97.4847 7.936C98.2167 7.936 98.8167 8.236 99.2247 8.824V5.86H100.509V14.5H99.2247V13.72C98.8167 14.32 98.2167 14.656 97.4847 14.656ZM97.6527 13.576C98.6727 13.576 99.2247 12.784 99.2247 11.308C99.2247 9.844 98.6487 9.016 97.6527 9.016C96.6327 9.016 96.0807 9.832 96.0807 11.308C96.0807 12.76 96.6567 13.576 97.6527 13.576ZM104.457 14.656C102.765 14.656 101.745 13.396 101.745 11.308C101.745 9.136 102.789 7.936 104.457 7.936C105.189 7.936 105.789 8.236 106.197 8.824V5.86H107.481V14.5H106.197V13.72C105.789 14.32 105.189 14.656 104.457 14.656ZM104.625 13.576C105.645 13.576 106.197 12.784 106.197 11.308C106.197 9.844 105.621 9.016 104.625 9.016C103.605 9.016 103.053 9.832 103.053 11.308C103.053 12.76 103.629 13.576 104.625 13.576ZM109.03 14.5V8.104H110.314V9.052C110.734 8.284 111.394 7.936 112.138 7.936C112.39 7.936 112.63 7.996 112.75 8.104V9.232C112.558 9.172 112.33 9.148 112.066 9.148C110.842 9.148 110.314 9.892 110.314 11.008V14.5H109.03ZM119.183 12.412C118.835 13.9 117.731 14.656 116.231 14.656C114.347 14.656 113.195 13.396 113.195 11.308C113.195 9.136 114.347 7.936 116.171 7.936C118.019 7.936 119.135 9.184 119.135 11.236V11.548H114.503C114.575 12.856 115.187 13.588 116.231 13.588C117.047 13.588 117.623 13.204 117.839 12.412H119.183ZM116.171 9.004C115.247 9.004 114.695 9.592 114.539 10.672H117.803C117.647 9.592 117.083 9.004 116.171 9.004ZM121.441 9.784C121.441 11.416 125.533 10.048 125.533 12.652C125.533 13.864 124.441 14.656 122.893 14.656C121.345 14.656 120.253 13.936 120.013 12.412H121.297C121.429 13.216 122.029 13.66 122.929 13.66C123.793 13.66 124.249 13.276 124.249 12.736C124.249 11.14 120.217 12.484 120.217 9.856C120.217 8.86 120.997 7.936 122.617 7.936C124.045 7.936 125.101 8.596 125.305 10.192H124.021C123.877 9.292 123.373 8.956 122.557 8.956C121.849 8.956 121.441 9.304 121.441 9.784ZM127.722 9.784C127.722 11.416 131.814 10.048 131.814 12.652C131.814 13.864 130.722 14.656 129.174 14.656C127.626 14.656 126.534 13.936 126.294 12.412H127.578C127.71 13.216 128.31 13.66 129.21 13.66C130.074 13.66 130.53 13.276 130.53 12.736C130.53 11.14 126.498 12.484 126.498 9.856C126.498 8.86 127.278 7.936 128.898 7.936C130.326 7.936 131.382 8.596 131.586 10.192H130.302C130.158 9.292 129.654 8.956 128.838 8.956C128.13 8.956 127.722 9.304 127.722 9.784Z" fill="#3851DD"/>
</svg>
