<svg width="44" height="44" viewBox="0 0 44 44" fill="none" xmlns="http://www.w3.org/2000/svg">
<rect width="44" height="44" rx="8" fill="#EBEEFC"/>
<path d="M28.6467 26.2207C28.6467 26.4607 28.5934 26.7073 28.48 26.9473C28.3667 27.1873 28.22 27.414 28.0267 27.6273C27.7 27.9873 27.34 28.2473 26.9334 28.414C26.5334 28.5807 26.1 28.6673 25.6334 28.6673C24.9534 28.6673 24.2267 28.5073 23.46 28.1807C22.6934 27.854 21.9267 27.414 21.1667 26.8607C20.4 26.3007 19.6734 25.6807 18.98 24.994C18.2934 24.3007 17.6734 23.574 17.12 22.814C16.5734 22.054 16.1334 21.294 15.8134 20.5407C15.4934 19.7807 15.3334 19.054 15.3334 18.3607C15.3334 17.9073 15.4134 17.474 15.5734 17.074C15.7334 16.6673 15.9867 16.294 16.34 15.9607C16.7667 15.5407 17.2334 15.334 17.7267 15.334C17.9134 15.334 18.1 15.374 18.2667 15.454C18.44 15.534 18.5934 15.654 18.7134 15.8273L20.26 18.0073C20.38 18.174 20.4667 18.3273 20.5267 18.474C20.5867 18.614 20.62 18.754 20.62 18.8807C20.62 19.0407 20.5734 19.2007 20.48 19.354C20.3934 19.5073 20.2667 19.6673 20.1067 19.8273L19.6 20.354C19.5267 20.4273 19.4934 20.514 19.4934 20.6207C19.4934 20.674 19.5 20.7207 19.5134 20.774C19.5334 20.8273 19.5534 20.8673 19.5667 20.9073C19.6867 21.1273 19.8934 21.414 20.1867 21.7607C20.4867 22.1073 20.8067 22.4607 21.1534 22.814C21.5134 23.1673 21.86 23.494 22.2134 23.794C22.56 24.0873 22.8467 24.2873 23.0734 24.4073C23.1067 24.4207 23.1467 24.4407 23.1934 24.4607C23.2467 24.4807 23.3 24.4873 23.36 24.4873C23.4734 24.4873 23.56 24.4473 23.6334 24.374L24.14 23.874C24.3067 23.7073 24.4667 23.5807 24.62 23.5007C24.7734 23.4073 24.9267 23.3607 25.0934 23.3607C25.22 23.3607 25.3534 23.3873 25.5 23.4473C25.6467 23.5073 25.8 23.594 25.9667 23.7073L28.1734 25.274C28.3467 25.394 28.4667 25.534 28.54 25.7007C28.6067 25.8673 28.6467 26.034 28.6467 26.2207Z" stroke="#3851DD" stroke-width="1.5" stroke-miterlimit="10"/>
</svg>
