<svg width="106" height="20" viewBox="0 0 106 20" fill="none" xmlns="http://www.w3.org/2000/svg">
<path d="M6.01337 3.89409L2.42004 6.69409C1.82004 7.16076 1.33337 8.15409 1.33337 8.90743V13.8474C1.33337 15.3941 2.59337 16.6608 4.14004 16.6608H11.86C13.4067 16.6608 14.6667 15.3941 14.6667 13.8541V9.00076C14.6667 8.19409 14.1267 7.16076 13.4667 6.70076L9.34671 3.81409C8.41337 3.16076 6.91337 3.19409 6.01337 3.89409Z" stroke="#8F9198" stroke-width="1.5" stroke-linecap="round" stroke-linejoin="round"/>
<path d="M8 13.9941V11.9941" stroke="#8F9198" stroke-width="1.5" stroke-linecap="round" stroke-linejoin="round"/>
<path d="M32.455 13.9591L35.715 10.6991C36.1 10.3141 36.1 9.68406 35.715 9.29906L32.455 6.03906" stroke="#8F9198" stroke-width="1.5" stroke-miterlimit="10" stroke-linecap="round" stroke-linejoin="round"/>
<path d="M52.876 14.5V6.34H54.688L56.992 11.992L57.268 12.856L57.544 11.992L59.824 6.34H61.588V14.5H60.244L60.28 7.888L59.692 9.64L57.712 14.5H56.752L54.76 9.628L54.184 7.924L54.22 14.5H52.876ZM63.7008 17.296C63.4248 17.296 63.1368 17.224 62.9928 17.176V16.192H63.3408C64.0728 16.192 64.3488 16.048 64.9008 14.716L65.0928 14.272L62.5248 8.104H63.9048L65.4888 12.088L65.7648 12.964L66.0408 12.088L67.5768 8.104H68.8848L65.9808 15.244C65.3328 16.84 64.8408 17.296 63.7008 17.296ZM72.1768 14.5V6.34H75.0808C76.9888 6.34 78.1648 7.336 78.1648 8.968C78.1648 10.636 76.9648 11.608 75.1048 11.608H73.5208V14.5H72.1768ZM75.0688 7.42H73.5208V10.528H75.0328C76.1608 10.528 76.7848 9.928 76.7848 8.98C76.7848 8.032 76.1488 7.42 75.0688 7.42ZM79.405 14.5V8.104H80.689V9.052C81.109 8.284 81.769 7.936 82.513 7.936C82.765 7.936 83.005 7.996 83.125 8.104V9.232C82.933 9.172 82.705 9.148 82.441 9.148C81.217 9.148 80.689 9.892 80.689 11.008V14.5H79.405ZM86.5576 14.656C84.6976 14.656 83.5696 13.396 83.5696 11.308C83.5696 9.136 84.7336 7.936 86.5576 7.936C88.4176 7.936 89.5456 9.22 89.5456 11.308C89.5456 13.468 88.3816 14.656 86.5576 14.656ZM86.5576 13.576C87.6496 13.576 88.2376 12.784 88.2376 11.308C88.2376 9.844 87.6376 9.016 86.5576 9.016C85.4776 9.016 84.8776 9.82 84.8776 11.308C84.8776 12.76 85.4776 13.576 86.5576 13.576ZM90.0756 9.088V8.104H90.9156V7.768C90.9156 6.376 91.5156 5.704 92.7156 5.704C93.0396 5.704 93.2916 5.764 93.4116 5.824V6.688H93.3036C92.4156 6.688 92.1996 7.048 92.1996 7.78V8.104H93.4116V9.088H92.1996V14.5H90.9156V9.088H90.0756ZM94.1916 7.312V5.86H95.4756V7.312H94.1916ZM94.1916 14.5V8.104H95.4756V14.5H94.1916ZM97.0183 14.5V5.86H98.3023V14.5H97.0183ZM105.53 12.412C105.182 13.9 104.078 14.656 102.578 14.656C100.694 14.656 99.5422 13.396 99.5422 11.308C99.5422 9.136 100.694 7.936 102.518 7.936C104.366 7.936 105.482 9.184 105.482 11.236V11.548H100.85C100.922 12.856 101.534 13.588 102.578 13.588C103.394 13.588 103.97 13.204 104.186 12.412H105.53ZM102.518 9.004C101.594 9.004 101.042 9.592 100.886 10.672H104.15C103.994 9.592 103.43 9.004 102.518 9.004Z" fill="#3851DD"/>
</svg>
