<svg width="40" height="41" viewBox="0 0 40 41" fill="none" xmlns="http://www.w3.org/2000/svg">
<circle cx="20" cy="20.4332" r="20" fill="#1863BF"/>
<path d="M25.53 16.2032C25.46 16.1932 25.39 16.1932 25.32 16.2032C23.77 16.1532 22.54 14.8832 22.54 13.3232C22.54 11.7332 23.83 10.4332 25.43 10.4332C27.02 10.4332 28.32 11.7232 28.32 13.3232C28.31 14.8832 27.08 16.1532 25.53 16.2032Z" fill="white"/>
<path d="M28.79 23.1333C27.67 23.8833 26.1 24.1633 24.65 23.9733C25.03 23.1533 25.23 22.2433 25.24 21.2833C25.24 20.2833 25.02 19.3333 24.6 18.5033C26.08 18.3033 27.65 18.5833 28.78 19.3333C30.36 20.3733 30.36 22.0833 28.79 23.1333Z" fill="white"/>
<path d="M14.44 16.2032C14.51 16.1932 14.58 16.1932 14.65 16.2032C16.2 16.1532 17.43 14.8832 17.43 13.3232C17.43 11.7232 16.14 10.4332 14.54 10.4332C12.95 10.4332 11.66 11.7232 11.66 13.3232C11.66 14.8832 12.89 16.1532 14.44 16.2032Z" fill="white"/>
<path d="M14.55 21.2832C14.55 22.2532 14.76 23.1732 15.14 24.0032C13.73 24.1532 12.26 23.8532 11.18 23.1432C9.6 22.0932 9.6 20.3832 11.18 19.3332C12.25 18.6132 13.76 18.3232 15.18 18.4832C14.77 19.3232 14.55 20.2732 14.55 21.2832Z" fill="white"/>
<path d="M20.12 24.3032C20.04 24.2932 19.95 24.2932 19.86 24.3032C18.02 24.2432 16.55 22.7332 16.55 20.8732C16.56 18.9732 18.09 17.4332 20 17.4332C21.9 17.4332 23.44 18.9732 23.44 20.8732C23.43 22.7332 21.97 24.2432 20.12 24.3032Z" fill="white"/>
<path d="M16.87 26.3732C15.36 27.3832 15.36 29.0432 16.87 30.0432C18.59 31.1932 21.41 31.1932 23.13 30.0432C24.64 29.0332 24.64 27.3732 23.13 26.3732C21.42 25.2232 18.6 25.2232 16.87 26.3732Z" fill="white"/>
</svg>
