<svg width="160" height="177" viewBox="0 0 160 177" fill="none" xmlns="http://www.w3.org/2000/svg">
<path d="M80.0003 168.156C123.914 168.156 159.513 132.557 159.513 88.6426C159.513 44.7283 123.914 9.1289 80.0003 9.1289C36.0861 9.1289 0.486694 44.7283 0.486694 88.6426C0.486694 132.557 36.0861 168.156 80.0003 168.156Z" fill="url(#paint0_linear_2436_19495)"/>
<path d="M125.584 54.7187H34.4087C31.4811 54.7187 29.1078 57.0916 29.1078 60.0196V171.339C29.1078 174.267 31.4811 176.64 34.4087 176.64H125.584C128.512 176.64 130.885 174.267 130.885 171.339V60.0196C130.885 57.0916 128.512 54.7187 125.584 54.7187Z" fill="white"/>
<path d="M69.4003 70.6206H41.8352C40.0786 70.6206 38.6546 72.0446 38.6546 73.8016C38.6546 75.5586 40.0786 76.9826 41.8352 76.9826H69.4003C71.1563 76.9826 72.5803 75.5586 72.5803 73.8016C72.5803 72.0446 71.1563 70.6206 69.4003 70.6206Z" fill="#3851DD"/>
<path d="M88.4833 84.4026H41.8352C40.0786 84.4026 38.6546 85.8266 38.6546 87.5826C38.6546 89.3396 40.0786 90.7636 41.8352 90.7636H88.4833C90.2393 90.7636 91.6633 89.3396 91.6633 87.5826C91.6633 85.8266 90.2393 84.4026 88.4833 84.4026Z" fill="#A9B4F0"/>
<path d="M69.4003 99.2426H41.8352C40.0786 99.2426 38.6546 100.667 38.6546 102.423C38.6546 104.18 40.0786 105.604 41.8352 105.604H69.4003C71.1563 105.604 72.5803 104.18 72.5803 102.423C72.5803 100.667 71.1563 99.2426 69.4003 99.2426Z" fill="#3851DD"/>
<path d="M88.4833 113.024H41.8352C40.0786 113.024 38.6546 114.448 38.6546 116.204C38.6546 117.961 40.0786 119.385 41.8352 119.385H88.4833C90.2393 119.385 91.6633 117.961 91.6633 116.204C91.6633 114.448 90.2393 113.024 88.4833 113.024Z" fill="#A9B4F0"/>
<path d="M69.4003 127.868H41.8352C40.0786 127.868 38.6546 129.292 38.6546 131.048C38.6546 132.805 40.0786 134.229 41.8352 134.229H69.4003C71.1563 134.229 72.5803 132.805 72.5803 131.048C72.5803 129.292 71.1563 127.868 69.4003 127.868Z" fill="#3851DD"/>
<path d="M88.4833 141.649H41.8352C40.0786 141.649 38.6546 143.073 38.6546 144.829C38.6546 146.586 40.0786 148.01 41.8352 148.01H88.4833C90.2393 148.01 91.6633 146.586 91.6633 144.829C91.6633 143.073 90.2393 141.649 88.4833 141.649Z" fill="#A9B4F0"/>
<path d="M125.584 0H34.4087C31.4811 0 29.1078 2.3733 29.1078 5.3009V37.1063C29.1078 40.0339 31.4811 42.4072 34.4087 42.4072H125.584C128.512 42.4072 130.885 40.0339 130.885 37.1063V5.3009C130.885 2.3733 128.512 0 125.584 0Z" fill="#3851DD"/>
<path d="M69.3963 11.6601H41.8313C40.0747 11.6601 38.6507 13.0841 38.6507 14.8407C38.6507 16.5972 40.0747 18.0212 41.8313 18.0212H69.3963C71.1523 18.0212 72.5763 16.5972 72.5763 14.8407C72.5763 13.0841 71.1523 11.6601 69.3963 11.6601Z" fill="white"/>
<path d="M88.4793 25.4414H41.8313C40.0747 25.4414 38.6507 26.8654 38.6507 28.6219C38.6507 30.3785 40.0747 31.8025 41.8313 31.8025H88.4793C90.2353 31.8025 91.6593 30.3785 91.6593 28.6219C91.6593 26.8654 90.2353 25.4414 88.4793 25.4414Z" fill="white"/>
<defs>
<linearGradient id="paint0_linear_2436_19495" x1="80.0003" y1="0" x2="80.0003" y2="176.64" gradientUnits="userSpaceOnUse">
<stop stop-color="#F8F7FF"/>
<stop offset="1" stop-color="#D7D8F5"/>
</linearGradient>
</defs>
</svg>
