<svg width="153" height="20" viewBox="0 0 153 20" fill="none" xmlns="http://www.w3.org/2000/svg">
<path d="M6.01337 3.89336L2.42004 6.69336C1.82004 7.16003 1.33337 8.15336 1.33337 8.90669V13.8467C1.33337 15.3934 2.59337 16.66 4.14004 16.66H11.86C13.4067 16.66 14.6667 15.3934 14.6667 13.8534V9.00003C14.6667 8.19336 14.1267 7.16003 13.4667 6.70003L9.34671 3.81336C8.41337 3.16003 6.91337 3.19336 6.01337 3.89336Z" stroke="#8F9198" stroke-width="1.5" stroke-linecap="round" stroke-linejoin="round"/>
<path d="M8 13.9934V11.9934" stroke="#8F9198" stroke-width="1.5" stroke-linecap="round" stroke-linejoin="round"/>
<path d="M32.455 13.96L35.715 10.7C36.1 10.315 36.1 9.68504 35.715 9.30004L32.455 6.04004" stroke="#8F9198" stroke-width="1.5" stroke-miterlimit="10" stroke-linecap="round" stroke-linejoin="round"/>
<path d="M53.968 8.356C53.968 10.504 58.912 8.812 58.912 12.148C58.912 13.756 57.604 14.656 55.816 14.656C54.004 14.656 52.756 13.828 52.42 12.124H53.824C54.052 13.048 54.736 13.552 55.828 13.552C56.944 13.552 57.532 13.06 57.532 12.328C57.532 10.024 52.588 11.74 52.588 8.464C52.588 7.24 53.62 6.184 55.48 6.184C57.088 6.184 58.408 6.952 58.696 8.74H57.268C57.04 7.732 56.404 7.288 55.444 7.288C54.508 7.288 53.968 7.708 53.968 8.356ZM60.2839 12.592V9.1H59.4199V8.104H60.2839V6.628H61.5679V8.104H62.9479V9.1H61.5679V12.52C61.5679 13.252 61.7719 13.6 62.6719 13.6H62.9239V14.536C62.7799 14.608 62.4799 14.656 62.1199 14.656C60.8719 14.656 60.2839 13.972 60.2839 12.592ZM65.1248 10.192H63.8408C64.0448 8.776 65.0168 7.936 66.6128 7.936C68.3528 7.936 69.2168 8.956 69.2168 10.444V12.94C69.2168 13.708 69.2888 14.152 69.4328 14.5H68.0888C67.9928 14.26 67.9568 13.924 67.9448 13.564C67.4048 14.32 66.5768 14.656 65.8088 14.656C64.5128 14.656 63.6248 14.044 63.6248 12.82C63.6248 11.944 64.1048 11.296 65.0648 10.972C65.9168 10.684 66.7808 10.612 67.9328 10.6V10.456C67.9328 9.52 67.5008 9.016 66.5168 9.016C65.6888 9.016 65.2448 9.472 65.1248 10.192ZM64.9208 12.772C64.9208 13.312 65.3648 13.648 66.0488 13.648C67.1168 13.648 67.9328 12.796 67.9328 11.764V11.476C65.4728 11.5 64.9208 12.04 64.9208 12.772ZM70.1069 9.1V8.104H70.9709V7.768C70.9709 6.376 71.5589 5.704 72.7589 5.704C73.0829 5.704 73.3349 5.764 73.4669 5.824V6.688H73.3469C72.4589 6.688 72.2429 7.048 72.2429 7.78V8.104H73.4669V9.1H72.2429V14.5H70.9709V9.1H70.1069ZM73.5405 9.1V8.104H74.4045V7.768C74.4045 6.376 74.9925 5.704 76.1925 5.704C76.5165 5.704 76.7685 5.764 76.9005 5.824V6.688H76.7805C75.8925 6.688 75.6765 7.048 75.6765 7.78V8.104H76.9005V9.1H75.6765V14.5H74.4045V9.1H73.5405ZM80.1455 14.5V6.34H81.9575L84.2615 11.992L84.5375 12.856L84.8135 11.992L87.0935 6.34H88.8575V14.5H87.5135L87.5495 7.888L86.9615 9.64L84.9815 14.5H84.0215L82.0295 9.628L81.4535 7.924L81.4895 14.5H80.1455ZM91.7264 10.192H90.4424C90.6464 8.776 91.6184 7.936 93.2144 7.936C94.9544 7.936 95.8184 8.956 95.8184 10.444V12.94C95.8184 13.708 95.8904 14.152 96.0344 14.5H94.6904C94.5944 14.26 94.5584 13.924 94.5464 13.564C94.0064 14.32 93.1784 14.656 92.4104 14.656C91.1144 14.656 90.2264 14.044 90.2264 12.82C90.2264 11.944 90.7064 11.296 91.6664 10.972C92.5184 10.684 93.3824 10.612 94.5344 10.6V10.456C94.5344 9.52 94.1024 9.016 93.1184 9.016C92.2904 9.016 91.8464 9.472 91.7264 10.192ZM91.5224 12.772C91.5224 13.312 91.9664 13.648 92.6504 13.648C93.7184 13.648 94.5344 12.796 94.5344 11.764V11.476C92.0744 11.5 91.5224 12.04 91.5224 12.772ZM97.4284 14.5V8.104H98.7124V8.956C99.1444 8.272 99.8164 7.936 100.644 7.936C101.976 7.936 102.804 8.716 102.804 10.228V14.5H101.532V10.492C101.532 9.568 101.124 9.004 100.248 9.004C99.2884 9.004 98.7124 9.856 98.7124 10.744V14.5H97.4284ZM105.578 10.192H104.294C104.498 8.776 105.47 7.936 107.066 7.936C108.806 7.936 109.67 8.956 109.67 10.444V12.94C109.67 13.708 109.742 14.152 109.886 14.5H108.542C108.446 14.26 108.41 13.924 108.398 13.564C107.858 14.32 107.03 14.656 106.262 14.656C104.966 14.656 104.078 14.044 104.078 12.82C104.078 11.944 104.558 11.296 105.518 10.972C106.37 10.684 107.234 10.612 108.386 10.6V10.456C108.386 9.52 107.954 9.016 106.97 9.016C106.142 9.016 105.698 9.472 105.578 10.192ZM105.374 12.772C105.374 13.312 105.818 13.648 106.502 13.648C107.57 13.648 108.386 12.796 108.386 11.764V11.476C105.926 11.5 105.374 12.04 105.374 12.772ZM113.584 14.536C111.952 14.536 110.968 13.288 110.968 11.248C110.968 9.112 111.976 7.936 113.584 7.936C114.4 7.936 115.012 8.224 115.42 8.776V8.104H116.704V14.704C116.704 16.456 115.54 17.308 114.004 17.308C112.468 17.308 111.364 16.588 111.136 15.1H112.42C112.54 15.868 113.152 16.276 113.992 16.276C114.844 16.276 115.42 15.832 115.42 14.728V13.648C114.988 14.236 114.364 14.536 113.584 14.536ZM113.848 13.456C114.868 13.456 115.42 12.676 115.42 11.236C115.42 9.832 114.844 9.016 113.848 9.016C112.828 9.016 112.276 9.796 112.276 11.248C112.276 12.652 112.84 13.456 113.848 13.456ZM123.94 12.412C123.592 13.9 122.488 14.656 120.988 14.656C119.104 14.656 117.952 13.396 117.952 11.308C117.952 9.136 119.104 7.936 120.928 7.936C122.776 7.936 123.892 9.184 123.892 11.236V11.548H119.26C119.332 12.856 119.944 13.588 120.988 13.588C121.804 13.588 122.38 13.204 122.596 12.412H123.94ZM120.928 9.004C120.004 9.004 119.452 9.592 119.296 10.672H122.56C122.404 9.592 121.84 9.004 120.928 9.004ZM125.178 14.5V8.104H126.462V8.92C126.87 8.26 127.506 7.936 128.262 7.936C129.114 7.936 129.75 8.308 130.062 9.04C130.482 8.308 131.178 7.936 132.018 7.936C133.278 7.936 134.094 8.716 134.094 10.228V14.5H132.81V10.492C132.81 9.568 132.462 9.004 131.67 9.004C130.806 9.004 130.278 9.856 130.278 10.744V14.5H128.994V10.492C128.994 9.568 128.634 9.004 127.854 9.004C126.99 9.004 126.462 9.856 126.462 10.744V14.5H125.178ZM141.331 12.412C140.983 13.9 139.879 14.656 138.379 14.656C136.495 14.656 135.343 13.396 135.343 11.308C135.343 9.136 136.495 7.936 138.319 7.936C140.167 7.936 141.283 9.184 141.283 11.236V11.548H136.651C136.723 12.856 137.335 13.588 138.379 13.588C139.195 13.588 139.771 13.204 139.987 12.412H141.331ZM138.319 9.004C137.395 9.004 136.843 9.592 136.687 10.672H139.951C139.795 9.592 139.231 9.004 138.319 9.004ZM142.569 14.5V8.104H143.853V8.956C144.285 8.272 144.957 7.936 145.785 7.936C147.117 7.936 147.945 8.716 147.945 10.228V14.5H146.673V10.492C146.673 9.568 146.265 9.004 145.389 9.004C144.429 9.004 143.853 9.856 143.853 10.744V14.5H142.569ZM149.675 12.592V9.1H148.811V8.104H149.675V6.628H150.959V8.104H152.339V9.1H150.959V12.52C150.959 13.252 151.163 13.6 152.063 13.6H152.315V14.536C152.171 14.608 151.871 14.656 151.511 14.656C150.263 14.656 149.675 13.972 149.675 12.592Z" fill="#3851DD"/>
</svg>
