<svg width="41" height="41" viewBox="0 0 41 41" fill="none" xmlns="http://www.w3.org/2000/svg">
<circle cx="20.5" cy="20.4332" r="20" fill="#5E606A"/>
<path d="M26.03 16.2032C25.96 16.1932 25.89 16.1932 25.82 16.2032C24.27 16.1532 23.04 14.8832 23.04 13.3232C23.04 11.7332 24.33 10.4332 25.93 10.4332C27.52 10.4332 28.82 11.7232 28.82 13.3232C28.81 14.8832 27.58 16.1532 26.03 16.2032Z" fill="white"/>
<path d="M29.29 23.1333C28.17 23.8833 26.6 24.1633 25.15 23.9733C25.53 23.1533 25.73 22.2433 25.74 21.2833C25.74 20.2833 25.52 19.3333 25.1 18.5033C26.58 18.3033 28.15 18.5833 29.28 19.3333C30.86 20.3733 30.86 22.0833 29.29 23.1333Z" fill="white"/>
<path d="M14.94 16.2032C15.01 16.1932 15.08 16.1932 15.15 16.2032C16.7 16.1532 17.93 14.8832 17.93 13.3232C17.93 11.7232 16.64 10.4332 15.04 10.4332C13.45 10.4332 12.16 11.7232 12.16 13.3232C12.16 14.8832 13.39 16.1532 14.94 16.2032Z" fill="white"/>
<path d="M15.05 21.2832C15.05 22.2532 15.26 23.1732 15.64 24.0032C14.23 24.1532 12.76 23.8532 11.68 23.1432C10.1 22.0932 10.1 20.3832 11.68 19.3332C12.75 18.6132 14.26 18.3232 15.68 18.4832C15.27 19.3232 15.05 20.2732 15.05 21.2832Z" fill="white"/>
<path d="M20.62 24.3032C20.54 24.2932 20.45 24.2932 20.36 24.3032C18.52 24.2432 17.05 22.7332 17.05 20.8732C17.06 18.9732 18.59 17.4332 20.5 17.4332C22.4 17.4332 23.94 18.9732 23.94 20.8732C23.93 22.7332 22.47 24.2432 20.62 24.3032Z" fill="white"/>
<path d="M17.37 26.3732C15.86 27.3832 15.86 29.0432 17.37 30.0432C19.09 31.1932 21.91 31.1932 23.63 30.0432C25.14 29.0332 25.14 27.3732 23.63 26.3732C21.92 25.2232 19.1 25.2232 17.37 26.3732Z" fill="white"/>
</svg>
