<svg width="16" height="17" viewBox="0 0 16 17" fill="none" xmlns="http://www.w3.org/2000/svg">
<path d="M10.7935 1.8335H5.20683C2.78016 1.8335 1.3335 3.28016 1.3335 5.70683V11.2868C1.3335 13.7202 2.78016 15.1668 5.20683 15.1668H10.7868C13.2135 15.1668 14.6602 13.7202 14.6602 11.2935V5.70683C14.6668 3.28016 13.2202 1.8335 10.7935 1.8335ZM11.1868 6.96683L7.40683 10.7468C7.31308 10.8405 7.186 10.8931 7.0535 10.8931C6.921 10.8931 6.79391 10.8405 6.70016 10.7468L4.8135 8.86016C4.72051 8.76607 4.66836 8.63912 4.66836 8.50683C4.66836 8.37454 4.72051 8.24759 4.8135 8.1535C5.00683 7.96016 5.32683 7.96016 5.52016 8.1535L7.0535 9.68683L10.4802 6.26016C10.6735 6.06683 10.9935 6.06683 11.1868 6.26016C11.3802 6.4535 11.3802 6.76683 11.1868 6.96683Z" fill="#289061"/>
</svg>
