<svg width="87" height="20" viewBox="0 0 87 20" fill="none" xmlns="http://www.w3.org/2000/svg">
<path d="M6.01337 3.89312L2.42004 6.69312C1.82004 7.15978 1.33337 8.15312 1.33337 8.90645V13.8464C1.33337 15.3931 2.59337 16.6598 4.14004 16.6598H11.86C13.4067 16.6598 14.6667 15.3931 14.6667 13.8531V8.99978C14.6667 8.19312 14.1267 7.15978 13.4667 6.69978L9.34671 3.81312C8.41337 3.15978 6.91337 3.19312 6.01337 3.89312Z" stroke="#8F9198" stroke-width="1.5" stroke-linecap="round" stroke-linejoin="round"/>
<path d="M8 13.9932V11.9932" stroke="#8F9198" stroke-width="1.5" stroke-linecap="round" stroke-linejoin="round"/>
<path d="M32.455 13.96L35.715 10.7C36.1 10.315 36.1 9.68504 35.715 9.30004L32.455 6.04004" stroke="#8F9198" stroke-width="1.5" stroke-miterlimit="10" stroke-linecap="round" stroke-linejoin="round"/>
<path d="M55.072 14.5V7.468H52.348V6.34H59.128V7.468H56.416V14.5H55.072ZM59.7058 14.5V8.104H60.9898V9.052C61.4098 8.284 62.0698 7.936 62.8138 7.936C63.0658 7.936 63.3058 7.996 63.4258 8.104V9.232C63.2338 9.172 63.0058 9.148 62.7418 9.148C61.5178 9.148 60.9898 9.892 60.9898 11.008V14.5H59.7058ZM64.2995 7.312V5.86H65.5835V7.312H64.2995ZM64.2995 14.5V8.104H65.5835V14.5H64.2995ZM68.4195 14.5H67.1355V5.86H68.4195V8.848C68.8275 8.26 69.4275 7.936 70.1595 7.936C71.8395 7.936 72.8595 9.196 72.8595 11.284C72.8595 13.456 71.8155 14.656 70.1595 14.656C69.4275 14.656 68.8275 14.356 68.4195 13.78V14.5ZM69.9915 9.016C68.9595 9.016 68.4195 9.82 68.4195 11.284C68.4195 12.748 68.9835 13.576 69.9915 13.576C70.9995 13.576 71.5515 12.772 71.5515 11.284C71.5515 9.832 70.9875 9.016 69.9915 9.016ZM79.7841 12.412C79.4361 13.9 78.3321 14.656 76.8321 14.656C74.9481 14.656 73.7961 13.396 73.7961 11.308C73.7961 9.136 74.9481 7.936 76.7721 7.936C78.6201 7.936 79.7361 9.184 79.7361 11.236V11.548H75.1041C75.1761 12.856 75.7881 13.588 76.8321 13.588C77.6481 13.588 78.2241 13.204 78.4401 12.412H79.7841ZM76.7721 9.004C75.8481 9.004 75.2961 9.592 75.1401 10.672H78.4041C78.2481 9.592 77.6841 9.004 76.7721 9.004ZM82.0422 9.784C82.0422 11.416 86.1342 10.048 86.1342 12.652C86.1342 13.864 85.0422 14.656 83.4942 14.656C81.9462 14.656 80.8542 13.936 80.6142 12.412H81.8982C82.0302 13.216 82.6302 13.66 83.5302 13.66C84.3942 13.66 84.8502 13.276 84.8502 12.736C84.8502 11.14 80.8182 12.484 80.8182 9.856C80.8182 8.86 81.5982 7.936 83.2182 7.936C84.6462 7.936 85.7022 8.596 85.9062 10.192H84.6222C84.4782 9.292 83.9742 8.956 83.1582 8.956C82.4502 8.956 82.0422 9.304 82.0422 9.784Z" fill="#3851DD"/>
</svg>
