<svg width="64" height="28" viewBox="0 0 64 28" fill="none" xmlns="http://www.w3.org/2000/svg">
<rect x="0.833496" y="0.5" width="63" height="27" rx="4" fill="#E8F1FC"/>
<path d="M18.2735 15.392C18.2735 17.42 17.0015 18.656 14.9495 18.656C12.8975 18.656 11.6255 17.42 11.6255 15.392V10.34H12.9695V15.392C12.9695 16.76 13.7135 17.576 14.9495 17.576C16.1975 17.576 16.9295 16.748 16.9295 15.392V10.34H18.2735V15.392ZM22.1323 18.536C20.5003 18.536 19.5163 17.288 19.5163 15.248C19.5163 13.112 20.5243 11.936 22.1323 11.936C22.9483 11.936 23.5603 12.224 23.9683 12.776V12.104H25.2523V18.704C25.2523 20.456 24.0883 21.308 22.5523 21.308C21.0163 21.308 19.9123 20.588 19.6843 19.1H20.9683C21.0883 19.868 21.7003 20.276 22.5403 20.276C23.3923 20.276 23.9683 19.832 23.9683 18.728V17.648C23.5363 18.236 22.9123 18.536 22.1323 18.536ZM22.3963 17.456C23.4163 17.456 23.9683 16.676 23.9683 15.236C23.9683 13.832 23.3923 13.016 22.3963 13.016C21.3763 13.016 20.8243 13.796 20.8243 15.248C20.8243 16.652 21.3883 17.456 22.3963 17.456ZM28.0247 14.192H26.7407C26.9447 12.776 27.9167 11.936 29.5127 11.936C31.2527 11.936 32.1167 12.956 32.1167 14.444V16.94C32.1167 17.708 32.1887 18.152 32.3327 18.5H30.9887C30.8927 18.26 30.8567 17.924 30.8447 17.564C30.3047 18.32 29.4767 18.656 28.7087 18.656C27.4127 18.656 26.5247 18.044 26.5247 16.82C26.5247 15.944 27.0047 15.296 27.9647 14.972C28.8167 14.684 29.6807 14.612 30.8327 14.6V14.456C30.8327 13.52 30.4007 13.016 29.4167 13.016C28.5887 13.016 28.1447 13.472 28.0247 14.192ZM27.8207 16.772C27.8207 17.312 28.2647 17.648 28.9487 17.648C30.0167 17.648 30.8327 16.796 30.8327 15.764V15.476C28.3727 15.5 27.8207 16.04 27.8207 16.772ZM33.7268 18.5V12.104H35.0108V12.956C35.4428 12.272 36.1148 11.936 36.9428 11.936C38.2748 11.936 39.1028 12.716 39.1028 14.228V18.5H37.8308V14.492C37.8308 13.568 37.4228 13.004 36.5468 13.004C35.5868 13.004 35.0108 13.856 35.0108 14.744V18.5H33.7268ZM43.0643 18.656C41.3723 18.656 40.3523 17.396 40.3523 15.308C40.3523 13.136 41.3963 11.936 43.0643 11.936C43.7963 11.936 44.3963 12.236 44.8043 12.824V9.86H46.0883V18.5H44.8043V17.72C44.3963 18.32 43.7963 18.656 43.0643 18.656ZM43.2323 17.576C44.2523 17.576 44.8043 16.784 44.8043 15.308C44.8043 13.844 44.2283 13.016 43.2323 13.016C42.2123 13.016 41.6603 13.832 41.6603 15.308C41.6603 16.76 42.2363 17.576 43.2323 17.576ZM48.8489 14.192H47.5649C47.7689 12.776 48.7409 11.936 50.3369 11.936C52.0769 11.936 52.9409 12.956 52.9409 14.444V16.94C52.9409 17.708 53.0129 18.152 53.1569 18.5H51.8129C51.7169 18.26 51.6809 17.924 51.6689 17.564C51.1289 18.32 50.3009 18.656 49.5329 18.656C48.2369 18.656 47.3489 18.044 47.3489 16.82C47.3489 15.944 47.8289 15.296 48.7889 14.972C49.6409 14.684 50.5049 14.612 51.6569 14.6V14.456C51.6569 13.52 51.2249 13.016 50.2409 13.016C49.4129 13.016 48.9689 13.472 48.8489 14.192ZM48.6449 16.772C48.6449 17.312 49.0889 17.648 49.7729 17.648C50.8409 17.648 51.6569 16.796 51.6569 15.764V15.476C49.1969 15.5 48.6449 16.04 48.6449 16.772Z" fill="#1C75E1"/>
</svg>
