<svg width="45" height="28" viewBox="0 0 45 28" fill="none" xmlns="http://www.w3.org/2000/svg">
<rect x="0.5" y="0.5" width="44" height="27" rx="4" fill="#E8F1FC"/>
<path d="M17.94 15.392C17.94 17.42 16.668 18.656 14.616 18.656C12.564 18.656 11.292 17.42 11.292 15.392V10.34H12.636V15.392C12.636 16.76 13.38 17.576 14.616 17.576C15.864 17.576 16.596 16.748 16.596 15.392V10.34H17.94V15.392ZM20.6828 12.356C20.6828 14.504 25.6268 12.812 25.6268 16.148C25.6268 17.756 24.3188 18.656 22.5308 18.656C20.7188 18.656 19.4708 17.828 19.1348 16.124H20.5388C20.7668 17.048 21.4508 17.552 22.5428 17.552C23.6588 17.552 24.2468 17.06 24.2468 16.328C24.2468 14.024 19.3028 15.74 19.3028 12.464C19.3028 11.24 20.3348 10.184 22.1948 10.184C23.8028 10.184 25.1228 10.952 25.4108 12.74H23.9828C23.7548 11.732 23.1188 11.288 22.1588 11.288C21.2228 11.288 20.6828 11.708 20.6828 12.356ZM32.6519 18.5L31.9559 16.664H28.2359L27.5399 18.5H26.1959L29.3399 10.34H30.9119L34.0559 18.5H32.6519ZM29.8559 12.428L28.6439 15.608H31.5479L30.3359 12.428L30.0959 11.636L29.8559 12.428Z" fill="#1C75E1"/>
</svg>
