<svg width="20" height="20" viewBox="0 0 20 20" fill="none" xmlns="http://www.w3.org/2000/svg">
<path d="M10 10.0001C12.3012 10.0001 14.1667 8.1346 14.1667 5.83341C14.1667 3.53223 12.3012 1.66675 10 1.66675C7.69885 1.66675 5.83337 3.53223 5.83337 5.83341C5.83337 8.1346 7.69885 10.0001 10 10.0001Z" stroke="#4A4C58" stroke-width="1.5" stroke-linecap="round" stroke-linejoin="round"/>
<path d="M16.0083 13.1167L13.0583 16.0667C12.9416 16.1834 12.8333 16.4 12.8083 16.5584L12.6499 17.6833C12.5916 18.0917 12.875 18.375 13.2833 18.3167L14.4083 18.1583C14.5666 18.1333 14.7916 18.025 14.9 17.9084L17.8499 14.9584C18.3583 14.45 18.5999 13.8583 17.8499 13.1083C17.1083 12.3667 16.5166 12.6083 16.0083 13.1167Z" stroke="#4A4C58" stroke-width="1.5" stroke-miterlimit="10" stroke-linecap="round" stroke-linejoin="round"/>
<path d="M15.5833 13.5417C15.8333 14.4417 16.5332 15.1417 17.4332 15.3917" stroke="#4A4C58" stroke-width="1.5" stroke-miterlimit="10" stroke-linecap="round" stroke-linejoin="round"/>
<path d="M2.84167 18.3333C2.84167 15.1083 6.05003 12.5 10 12.5C10.8667 12.5 11.7 12.625 12.475 12.8583" stroke="#4A4C58" stroke-width="1.5" stroke-linecap="round" stroke-linejoin="round"/>
</svg>
